<?xml version="1.0" encoding="UTF-8"?>
<svg width="104px" height="30px" viewBox="0 0 104 30" version="1.1" xmlns="http://www.w3.org/2000/svg" xmlns:xlink="http://www.w3.org/1999/xlink">
    <title>overleaf-green</title>
    <g id="overleaf-green" stroke="none" fill="none" fill-rule="evenodd">
        <path d="M6.75113511,1.31597728 C6.9650881,0.23544797 8.44129447,-0.467987266 8.73833599,0.368928105 L10.1667665,4.39194155 C10.3917979,5.02584531 10.7821409,5.52643811 11.304387,5.86631339 C9.95039005,6.85058136 8.65542056,7.90810268 7.42588329,9.04818206 C6.80583507,9.63302468 6.19028747,10.2273412 5.62113099,10.8768092 C5.03639539,11.5462399 4.42950286,12.2545813 4.1116892,13.096572 C2.9235231,16.1366709 4.17071668,19.7619507 6.75719365,21.725073 C8.58773802,23.7981599 12.1067107,23.9309634 14.0184395,21.6174769 L12.4020212,21.1214518 C11.8808138,20.4988829 12.199666,19.5577549 12.9981815,19.362187 L15.0793763,18.8522895 C15.0880851,18.6034593 15.0793763,17.9639366 14.8858492,17.3185368 C13.5020789,15.026874 13.1865155,11.5980079 14.5914042,10.6788728 C16.2493668,9.59428329 19.4313116,11.5135889 20.9912989,13.7913792 C21.1377425,14.0887912 21.2538356,14.3080438 21.3395784,14.4491368 C21.9802256,15.6025811 22.2583991,16.9272319 22.3736845,18.2248145 C22.4055351,18.6218713 22.4121129,19.0160522 22.3989573,19.4066804 L23.8964551,20.9505837 C24.4474359,21.5186779 24.1896884,22.4694489 23.4143684,22.7282887 L21.8748071,22.3439201 C20.5556034,26.3451098 16.9109593,29.466075 12.4312753,29.9277572 C5.21070822,30.7453865 -1.15335453,24.499565 0.177273793,17.4332383 C0.512516573,15.8057302 1.30814545,14.4488943 2.12873373,13.1103997 L2.57618551,12.3806141 C2.79853192,12.0151142 3.01684624,11.647566 3.22229563,11.272851 C4.31802574,9.27437083 5.07932447,7.89118504 5.80098305,6.11601767 Z M11.4798026,5.92356688 C11.7607094,6.07944094 12.0750327,6.19318688 12.4187694,6.26059187 L16.907013,7.14039563 C17.795333,7.31463755 17.2874729,8.83040747 16.220932,9.1881595 L11.2069018,10.8702513 C8.89438073,12.0112494 6.68663407,13.6149828 5.96696261,15.9724727 C5.73426594,16.738362 5.64306695,17.4820076 5.61365353,18.1346565 C5.60912839,18.2049262 5.60582156,18.2745219 5.60338494,18.343949 C5.52802394,18.1904342 5.45736212,18.0343916 5.39366206,17.8754843 C4.82366835,16.4793583 4.67921192,14.8537182 5.19525204,13.4346744 C5.46153918,12.7014766 5.95216888,12.0884281 6.4226095,11.459708 C6.92785889,10.8141366 7.46774302,10.179687 8.02868645,9.56141468 C9.14100091,8.31998311 10.3070949,7.11612983 11.4798026,5.92356688 Z M31.4248286,24.0569106 L33.3614189,24.0569106 C34.0511062,24.0569106 34.6102083,23.4978085 34.6102083,22.8081211 L34.6102083,16.7646914 L34.6102083,16.7646914 L41.5940248,16.7646914 L41.5940248,22.8081211 C41.5940248,23.4978085 42.1531269,24.0569106 42.8428142,24.0569106 L44.7794045,24.0569106 C45.4690919,24.0569106 46.028194,23.4978085 46.028194,22.8081211 L46.028194,7.34635042 C46.028194,6.65666305 45.4690919,6.09756098 44.7794045,6.09756098 L42.8428142,6.09756098 C42.1531269,6.09756098 41.5940248,6.65666305 41.5940248,7.34635042 L41.5940248,13.0763955 L41.5940248,13.0763955 L34.6102083,13.0763955 L34.6102083,7.34635042 C34.6102083,6.65666305 34.0511062,6.09756098 33.3614189,6.09756098 L31.4248286,6.09756098 C30.7351412,6.09756098 30.1760391,6.65666305 30.1760391,7.34635042 L30.1760391,22.8081211 C30.1760391,23.4978085 30.7351412,24.0569106 31.4248286,24.0569106 Z M52.0172901,24.2479675 C53.8379924,24.2479675 54.9988428,23.6230703 55.76867,22.2531034 L55.8175479,22.2531034 L55.8175479,22.7828675 C55.8175479,23.4725548 56.37665,24.0316569 57.0663374,24.0316569 L58.6745032,24.0316569 C59.3641906,24.0316569 59.9232927,23.4725548 59.9232927,22.7828675 L59.9232927,15.4873899 L59.9232927,15.4873899 C59.9232927,12.6873698 57.8582008,11.0650407 54.1068209,11.0650407 C50.3676605,11.0650407 48.2536907,12.6993871 48.0703986,15.4513381 L51.9806317,15.4513381 C52.066168,14.5860959 52.7871172,14.0333022 53.9601872,14.0333022 C55.0721597,14.0333022 55.7564505,14.5500441 55.7564505,15.3071311 L55.7564505,15.3672173 C55.7564505,16.1243043 54.9133065,16.3045631 52.6038251,16.4968391 C49.8544424,16.7131497 47.5938389,17.6384782 47.5938389,20.4865672 C47.5938389,23.0101904 49.4389801,24.2479675 52.0172901,24.2479675 Z M53.3003353,21.5440855 C52.2738992,21.5440855 51.5773889,21.0754126 51.5773889,20.2942912 C51.5773889,19.4651007 52.3838745,19.0084451 53.5080665,18.8402035 C54.5467221,18.671962 55.3409882,18.5157377 55.7931089,18.3114444 L55.7931089,19.4651007 C55.7931089,20.714895 54.7055754,21.5440855 53.3003353,21.5440855 Z M65.5241998,11.8292683 C66.2138871,11.8292683 66.7729892,12.3883704 66.7729892,13.0780577 L66.7729892,24.7773475 C66.7729892,27.5367256 65.1615169,29.0243902 61.988156,29.0243902 L61.5634933,29.0243902 C60.873806,29.0243902 60.3147039,28.4652882 60.3147039,27.7756008 L60.3147039,26.6888281 C60.3147039,26.2096019 60.7031935,25.8211122 61.1824198,25.8211122 C62.1121154,25.8211122 62.4963895,25.4012069 62.4963895,24.3574421 L62.4963895,13.0780577 C62.4963895,12.3883704 63.0554916,11.8292683 63.745179,11.8292683 L65.5241998,11.8292683 Z M90.7009879,6.28861789 L92.4553727,8.98600326 C93.0074518,9.83717821 93.5349941,10.7003415 94.050268,11.5515165 C94.5900787,10.7003415 95.1298894,9.83717821 95.6942369,8.98600326 L97.4731586,6.28861789 L100.333649,6.28861789 C100.544338,6.28861789 100.750372,6.3491867 100.926089,6.46278061 C101.420672,6.7825076 101.556365,7.43348359 101.229169,7.91677618 L96.503953,14.8962743 L101.813606,22.5112645 C101.935048,22.6854348 102,22.8913061 102,23.1020619 C102,23.6815419 101.519265,24.1513033 100.926249,24.1513033 L97.8412114,24.1513033 L95.5470158,20.7106384 C95.2034999,20.1831497 94.704584,19.3890463 94.050268,18.3283282 C91.8174146,22.4021257 87.7547766,24.4390244 81.862354,24.4390244 C77.887435,24.4390244 75.1883307,21.6816971 75.1883307,17.8214389 C75.1883307,13.9611807 77.4824205,11.2038535 81.3224376,11.2038535 C85.2115284,11.2038535 87.2540627,13.8892505 87.2540627,17.7255319 L87.253111,17.7714888 C87.2284468,18.3659312 86.7274825,18.8404512 86.1130992,18.8404512 L78.881021,18.8404512 C78.9300947,20.446894 80.1942456,21.2008195 81.862354,21.2008195 C86.3502282,21.2008195 89.679422,19.2071999 91.8499353,15.2199606 L86.8139778,7.91793216 C86.697231,7.74598276 86.6349629,7.54421152 86.6349629,7.33785925 C86.6349629,6.75837925 87.1156978,6.28861789 87.7087143,6.28861789 L90.7009879,6.28861789 Z M78.636476,6.09756098 C79.3261634,6.09756098 79.8852655,6.65666305 79.8852655,7.34635042 L79.8852655,8.53706749 C79.8852655,9.22675485 79.3261634,9.78585693 78.636476,9.78585693 L73.4028648,9.78585693 L73.4028648,22.8081211 C73.4028648,23.4978085 72.8437628,24.0569106 72.1540754,24.0569106 L70.2109909,24.0569106 C69.5213035,24.0569106 68.9622015,23.4978085 68.9622015,22.8081211 L68.9622015,9.78585693 L63.7162551,9.78585693 C63.0265678,9.78585693 62.4674657,9.22675485 62.4674657,8.53706749 L62.4674657,7.34635042 C62.4674657,6.65666305 63.0265678,6.09756098 63.7162551,6.09756098 L78.636476,6.09756098 Z M81.4328535,14.2489018 C80.0097161,14.2489018 79.0895842,15.0401349 78.9055579,16.370845 L83.9601491,16.370845 C83.7761227,15.0401349 82.8437224,14.2489018 81.4328535,14.2489018 Z" id="Combined-Shape-Copy-2" fill="#04B5A9"></path>
    </g>
</svg>