<?xml version="1.0" encoding="UTF-8"?>
<svg width="425px" height="192px" viewBox="0 0 425 192" version="1.1" xmlns="http://www.w3.org/2000/svg" xmlns:xlink="http://www.w3.org/1999/xlink">
    <title>overleaf-a-ds-solution-mallard</title>
    <g id="overleaf-a-ds-solution-mallard" stroke="none" fill="none" fill-rule="evenodd">
        <path d="M30.732604,38.5271046 C31.6114893,33.9888815 37.6755136,31.0344535 38.8957135,34.549498 L44.7634818,51.4461545 C45.6878757,54.1085503 47.2913437,56.2110401 49.4366487,57.6385162 C43.8746415,61.7724417 38.5551099,66.2140312 33.5043637,71.0023646 C30.9573029,73.4587036 28.4287299,75.9548329 26.0907243,78.6825985 C23.6887223,81.4942078 21.1957029,84.4692414 19.8901743,88.0056022 C15.0093743,100.774018 20.1326499,116.000193 30.7574916,124.245307 C38.2770807,132.952272 52.7324686,133.510046 60.5855506,123.793403 L53.9455579,121.710098 C51.8045193,119.095308 53.1143144,115.14257 56.3944907,114.321185 L64.9437125,112.179616 C64.9794866,111.134529 64.9437125,108.448534 64.1487337,105.737855 C58.4644221,96.112871 57.1681373,81.7116332 62.9391998,77.8512659 C69.7498498,73.2959898 82.8207801,81.3570734 89.2289632,90.9237926 C89.8305304,92.1729231 90.3074228,93.0937838 90.6596406,93.6863747 C93.291319,98.5308408 94.4340122,104.094374 94.9075863,109.544221 C95.0384236,111.21186 95.0654443,112.867419 95.0114028,114.508058 L101.162889,120.992452 C103.426232,123.378447 102.367445,127.371685 99.1825527,128.458813 L92.858276,126.844464 C87.4391944,143.649461 72.467568,156.757515 54.0657291,158.69658 C24.404772,162.130623 -1.7377995,135.898173 3.72821294,106.219601 C5.09617721,99.429536 8.33025905,93.7612207 11.6772509,88.1758736 L12.3955527,86.9799049 C13.7132651,84.7882357 15.0290762,82.59792 16.236685,80.3459741 C20.7377724,71.9523575 23.8650682,66.1429772 26.8295284,58.6872742 Z M50.1572284,57.8789809 C51.3111495,58.5336519 52.6023402,59.0113849 54.0143565,59.2944859 L72.4513574,62.9896616 C76.1004365,63.7214777 74.0142271,70.0877114 69.6330443,71.5902699 L49.0361946,78.6550553 L49.0247555,78.6451467 C39.5367208,83.4472474 30.4676439,90.1829278 27.5113464,100.084385 C26.555465,103.30112 26.1808338,106.424432 26.0600081,109.165557 C26.0414196,109.46069 26.0278356,109.752992 26.0178264,110.044586 C25.7082552,109.399823 25.4179876,108.744445 25.1563177,108.077034 C22.8148729,102.213305 22.2214686,95.3856164 24.3412804,89.4256327 C25.4351462,86.3462016 27.4505761,83.771398 29.3830724,81.1307735 C31.4585576,78.4193737 33.6763169,75.7546856 35.9805845,73.1579417 C40.5497978,67.9439291 45.3399291,62.8877453 50.1572284,57.8789809 Z M132.080386,134.039024 L140.051355,134.039024 C142.880131,134.039024 145.173307,131.745849 145.173307,128.917073 L145.173307,103.411704 L145.173307,103.411704 L173.861729,103.411704 L173.861729,128.917073 C173.861729,131.745849 176.154905,134.039024 178.98368,134.039024 L186.95465,134.039024 C189.783425,134.039024 192.076601,131.745849 192.076601,128.917073 L192.076601,63.7317073 C192.076601,60.9029318 189.783425,58.6097561 186.95465,58.6097561 L178.98368,58.6097561 C176.154905,58.6097561 173.861729,60.9029318 173.861729,63.7317073 L173.861729,87.920861 L173.861729,87.920861 L145.173307,87.920861 L145.173307,63.7317073 C145.173307,60.9029318 142.880131,58.6097561 140.051355,58.6097561 L132.080386,58.6097561 C129.251611,58.6097561 126.958435,60.9029318 126.958435,63.7317073 L126.958435,128.917073 C126.958435,131.745849 129.251611,134.039024 132.080386,134.039024 Z M216.678868,134.841463 C224.158028,134.841463 228.926619,132.216895 232.088948,126.463034 L232.289731,126.463034 L232.289731,128.811008 C232.289731,131.639783 234.582907,133.932959 237.411682,133.932959 L244.033535,133.932959 C246.862311,133.932959 249.155487,131.639783 249.155487,128.811008 L249.155487,98.0470374 L249.155487,98.0470374 C249.155487,86.2869533 240.672413,79.4731707 225.262333,79.4731707 C209.902449,79.4731707 201.218592,86.3374258 200.465657,97.89562 L216.528281,97.89562 C216.879651,94.2616026 219.841197,91.9398693 224.659985,91.9398693 C229.227793,91.9398693 232.038753,94.1101852 232.038753,97.2899504 L232.038753,97.5423127 C232.038753,100.722078 228.575249,101.479165 219.088262,102.286724 C207.794229,103.195229 198.508024,107.081608 198.508024,119.043582 C198.508024,129.6428 206.087575,134.841463 216.678868,134.841463 Z M221.949417,123.485159 C217.732978,123.485159 214.871823,121.516733 214.871823,118.236023 C214.871823,114.753423 218.184739,112.835469 222.802744,112.128855 C227.069378,111.42224 230.332099,110.766098 232.18934,109.908066 L232.18934,114.753423 C232.18934,120.002559 227.721922,123.485159 221.949417,123.485159 Z M272.171014,82.6829268 C274.99979,82.6829268 277.292965,84.9761025 277.292965,87.804878 L277.292965,137.064859 C277.292965,148.654247 270.67329,154.902439 257.637621,154.902439 L255.885294,154.902439 C253.056518,154.902439 250.763343,152.609263 250.763343,149.780488 L250.763343,145.013112 C250.763343,143.044526 252.359197,141.448671 254.327783,141.448671 C258.146827,141.448671 259.725365,139.685069 259.725365,135.301257 L259.725365,87.804878 C259.725365,84.9761025 262.018541,82.6829268 264.847316,82.6829268 L272.171014,82.6829268 Z M375.585431,59.4121951 L382.792168,70.7412137 C385.060023,74.3161485 387.227084,77.9414344 389.343748,81.5163692 C391.561205,77.9414344 393.778663,74.3161485 396.096914,70.7412137 L403.404446,59.4121951 L415.154892,59.4121951 C416.020371,59.4121951 416.866725,59.6665841 417.588544,60.1436786 C419.62021,61.4865319 420.177618,64.2206311 418.833549,66.25046 L399.423101,95.5643522 L421.234322,127.547311 C421.733189,128.278826 422,129.143486 422,130.02866 C422,132.462476 420.025217,134.435474 417.589198,134.435474 L404.916349,134.435474 L395.492153,119.984681 C394.081044,117.769229 392.031575,114.433994 389.343748,109.978978 C380.171536,127.088928 363.482857,135.643902 339.277709,135.643902 C322.949365,135.643902 311.861868,124.063128 311.861868,107.850043 C311.861868,91.6369591 321.285629,80.0561846 337.059817,80.0561846 C353.035592,80.0561846 361.426003,91.334852 361.426003,107.447234 L361.422093,107.640253 C361.320777,110.136911 359.262894,112.129895 356.739103,112.129895 L327.030861,112.129895 C327.232448,118.876955 332.425381,122.043442 339.277709,122.043442 C357.713192,122.043442 371.388998,113.670239 380.305127,96.9238345 L359.618203,66.2553151 C359.138625,65.5331276 358.882838,64.6856884 358.882838,63.8190089 C358.882838,61.3851928 360.857621,59.4121951 363.29364,59.4121951 L375.585431,59.4121951 Z M326.034188,58.6097561 C328.862964,58.6097561 331.156139,60.9029318 331.156139,63.7317073 L331.156139,68.9786479 C331.156139,71.8074234 328.862964,74.1005991 326.034188,74.1005991 L304.527455,74.1005991 L304.527455,128.917073 C304.527455,131.745849 302.234279,134.039024 299.405503,134.039024 L291.407857,134.039024 C288.579082,134.039024 286.285906,131.745849 286.285906,128.917073 L286.285906,74.1005991 L264.728501,74.1005991 C261.899726,74.1005991 259.60655,71.8074234 259.60655,68.9786479 L259.60655,63.7317073 C259.60655,60.9029318 261.899726,58.6097561 264.728501,58.6097561 L326.034188,58.6097561 Z M337.513388,92.8453878 C331.667363,92.8453878 327.887606,96.1685665 327.131654,101.757549 L347.895122,101.757549 C347.139171,96.1685665 343.309016,92.8453878 337.513388,92.8453878 Z" id="Combined-Shape-Copy" fill="#04B5A9"></path>
    </g>
</svg>
