<?xml version="1.0" encoding="UTF-8"?>
<svg width="542px" height="157px" viewBox="0 0 542 157" version="1.1" xmlns="http://www.w3.org/2000/svg" xmlns:xlink="http://www.w3.org/1999/xlink">
    <title>overleaf-white</title>
    <g id="overleaf-white" stroke="none" fill="none" fill-rule="evenodd">
        <path d="M44.5499267,6.88694775 C45.6448626,1.23217771 53.1995658,-2.44913336 54.7197195,1.93072375 L62.0299224,22.9844941 C63.181554,26.3019238 65.1791919,28.9216928 67.851863,30.7003734 C60.9225844,35.8513758 54.2953876,41.3857374 48.0030498,47.3521528 C44.8298618,50.4128291 41.6797065,53.5230855 38.7669645,56.9219679 C35.7744941,60.4253224 32.6686323,64.1323088 31.0421741,68.5387266 C24.9615594,84.4485775 31.344256,103.420875 44.5809322,113.694549 C53.9490122,124.543704 71.9578726,125.238708 81.7414258,113.131462 L73.4691675,110.535598 C70.8018116,107.277487 72.433585,102.35225 76.5201054,101.328779 L87.1709258,98.6603151 C87.2154941,97.3581035 87.1709258,94.0112682 86.1805226,90.6336759 C79.0988743,78.6406408 77.4839324,60.6962414 84.673657,55.8861012 C93.1585241,50.2100826 109.442595,60.2544486 117.426059,72.1748845 C118.175506,73.7313407 118.769629,74.8787623 119.208431,75.6171494 C122.487037,81.6535079 123.910631,88.585847 124.500621,95.376529 C124.663621,97.45446 124.697284,99.5173399 124.629958,101.561627 L132.293623,109.641388 C135.113349,112.614414 133.794288,117.590116 129.826474,118.944711 L121.947542,116.933182 C115.196323,137.872741 96.544321,154.205792 73.6188797,156.621929 C36.6665656,160.900856 4.09753857,128.21439 10.9072247,91.2339474 C12.6062865,82.799027 16.6160899,75.7533584 20.772304,68.8143537 L21.5527815,67.5142272 C23.2452437,64.6986378 24.9395446,61.8874222 26.4905718,58.9945868 C32.0981317,48.535874 35.9941899,41.2972017 39.6873839,32.0071591 Z M68.7495781,31 C70.18716,31.8157409 71.7957555,32.4110113 73.5548785,32.7637641 L96.5241254,37.3680704 C101.070234,38.2799365 98.471185,46.2124657 93.0130051,48.0847014 L67.352968,56.8876482 L67.3387169,56.8753019 C55.5183014,62.8588717 44.2198332,71.2517434 40.5368087,83.5892736 C39.3459492,87.5974276 38.879225,91.4891732 38.7286975,94.9047025 C38.7055394,95.2724473 38.6886162,95.6366646 38.6761465,96 C38.2904755,95.1966054 37.9288532,94.3799826 37.6028588,93.5483678 C34.6858321,86.2419749 33.9465551,77.7344585 36.5874663,70.3081296 C37.7458154,67.046621 39.7336711,64.2394074 41.782501,61.4499705 L42.5068978,60.4654908 L42.8686486,59.9724717 C45.4543367,56.5939815 48.2172731,53.2736955 51.0879836,50.0380702 C56.7804164,43.5412449 62.748074,37.2410794 68.7495781,31 Z M170.812432,125.897832 L180.740717,125.897832 C184.265461,125.897832 187.122831,123.040462 187.122831,119.515718 L187.122831,87.7352185 L187.122831,87.7352185 L222.863539,87.7352185 L222.863539,119.515718 C222.863539,123.040462 225.720908,125.897832 229.245652,125.897832 L239.173938,125.897832 C242.698682,125.897832 245.556052,123.040462 245.556052,119.515718 L245.556052,38.2926829 C245.556052,34.7679388 242.698682,31.9105691 239.173938,31.9105691 L229.245652,31.9105691 C225.720908,31.9105691 222.863539,34.7679388 222.863539,38.2926829 L222.863539,68.4331364 L222.863539,68.4331364 L187.122831,68.4331364 L187.122831,38.2926829 C187.122831,34.7679388 184.265461,31.9105691 180.740717,31.9105691 L170.812432,31.9105691 C167.287688,31.9105691 164.430318,34.7679388 164.430318,38.2926829 L164.430318,119.515718 C164.430318,123.040462 167.287688,125.897832 170.812432,125.897832 Z M276.206132,126.897696 C285.523843,126.897696 291.464666,123.627401 295.40437,116.457908 L295.65451,116.457908 L295.65451,119.383557 C295.65451,122.908302 298.51188,125.765671 302.036624,125.765671 L310.284149,125.765671 C313.808893,125.765671 316.666262,122.908302 316.666262,119.383557 L316.666262,81.0506736 L316.666262,81.0506736 C316.666262,66.3972355 306.097851,57.9070461 286.899613,57.9070461 C267.76391,57.9070461 256.945358,66.4601258 256.007334,80.8620027 L276.018527,80.8620027 C276.456272,76.3339016 280.145835,73.4409482 286.149193,73.4409482 C291.839876,73.4409482 295.341835,76.1452308 295.341835,80.1073192 L295.341835,80.4217706 C295.341835,84.383859 291.026922,85.3272134 279.207811,86.3334581 C265.137441,87.4654833 253.56847,92.3080358 253.56847,107.213035 C253.56847,120.419996 263.011251,126.897696 276.206132,126.897696 Z M282.772304,112.747381 C277.519366,112.747381 273.954872,110.294659 273.954872,106.20679 C273.954872,101.86736 278.082181,99.4775291 283.835399,98.597065 C289.150872,97.716601 293.215646,96.8990272 295.52944,95.8298922 L295.52944,101.86736 C295.52944,108.407951 289.963827,112.747381 282.772304,112.747381 Z M345.338478,61.9065041 C348.863222,61.9065041 351.720592,64.7638738 351.720592,68.2886179 L351.720592,129.668119 C351.720592,144.108864 343.473645,151.894309 327.233504,151.894309 L325.051481,151.894309 C321.526737,151.894309 318.669367,149.036939 318.669367,145.512195 L318.669367,139.571151 C318.669367,137.11864 320.65752,135.130487 323.110031,135.130487 C327.867885,135.130487 329.834464,132.932983 329.834464,127.470614 L329.834464,68.2886179 C329.834464,64.7638738 332.691834,61.9065041 336.216578,61.9065041 L345.338478,61.9065041 Z M474.175644,32.9104336 L483.153966,47.0267504 C485.979312,51.4812326 488.679087,55.998454 491.316077,60.4529362 C494.078638,55.998454 496.841199,51.4812326 499.72933,47.0267504 L508.833223,32.9104336 L523.472204,32.9104336 C524.550438,32.9104336 525.604846,33.2274104 526.504105,33.8218852 C529.035202,35.4951231 529.729633,38.9018975 528.055161,41.4311287 L503.873171,77.957169 L531.046101,117.808951 C531.667601,118.720442 532,119.797835 532,120.900791 C532,123.933403 529.539769,126.391821 526.504919,126.391821 L510.716788,126.391821 L498.975905,108.385674 C497.217911,105.62515 494.664636,101.469342 491.316077,95.9182509 C479.889122,117.237791 459.097974,127.897561 428.942635,127.897561 C408.600403,127.897561 394.787339,113.467548 394.787339,93.2655304 C394.787339,73.0635125 406.527681,58.6334998 426.179534,58.6334998 C446.082528,58.6334998 456.535497,72.6870774 456.535497,92.7636169 L456.530627,93.0041246 C456.404404,96.1150397 453.840646,98.5983612 450.696449,98.5983612 L413.685225,98.5983612 C413.936367,107.005412 420.405845,110.950955 428.942635,110.950955 C451.909992,110.950955 468.94763,100.517679 480.055551,79.6511271 L454.283298,41.4371783 C453.685829,40.5373098 453.367163,39.4813736 453.367163,38.4014634 C453.367163,35.3688514 455.827394,32.9104336 458.862244,32.9104336 L474.175644,32.9104336 Z M412.44248,31.9105691 C415.967224,31.9105691 418.824594,34.7679388 418.824594,38.2926829 L418.824594,44.8305375 C418.824594,48.3552816 415.967224,51.2126513 412.44248,51.2126513 L385.649955,51.2126513 L385.649955,119.515718 C385.649955,123.040462 382.792586,125.897832 379.267841,125.897832 L369.306321,125.897832 C365.781577,125.897832 362.924208,123.040462 362.924208,119.515718 L362.924208,51.2126513 L336.068556,51.2126513 C332.543812,51.2126513 329.686442,48.3552816 329.686442,44.8305375 L329.686442,38.2926829 C329.686442,34.7679388 332.543812,31.9105691 336.068556,31.9105691 L412.44248,31.9105691 Z M426.744603,74.569253 C419.461488,74.569253 414.752578,78.7100393 413.810796,85.6740889 L439.67841,85.6740889 C438.736628,78.7100393 433.964932,74.569253 426.744603,74.569253 Z" id="Combined-Shape-Copy" fill="#FFFFFF"></path>
    </g>
</svg>