<?xml version="1.0" encoding="UTF-8"?>
<svg width="129px" height="38px" viewBox="0 0 129 38" version="1.1" xmlns="http://www.w3.org/2000/svg" xmlns:xlink="http://www.w3.org/1999/xlink">
    <title>overleaf-black</title>
    <g id="overleaf-black" stroke="none" fill="none" fill-rule="evenodd">
        <path d="M9.40582509,1.66690455 C9.67221753,0.298234096 11.5102392,-0.59278387 11.880085,0.467308933 L13.658621,5.56312597 C13.9388072,6.36607073 14.4248225,7.00015494 15.0750701,7.43066363 C13.3892111,8.67740305 11.7768472,10.0169301 10.2459527,11.4610306 C9.4739319,12.2018313 8.7075148,12.9546322 7.99885917,13.7772916 C7.27080603,14.6252373 6.51516533,15.5224696 6.11945616,16.5889911 C4.64007288,20.4397831 6.19295116,25.0318042 9.41336856,27.5184258 C11.6925758,30.1443359 16.0740418,30.3125536 18.4543316,27.3821373 L16.4417323,26.753839 C15.7927779,25.9652516 16.1897803,24.7731562 17.1840103,24.5254369 L19.7753019,23.8795667 C19.7861451,23.5643817 19.7753019,22.7543197 19.5343417,21.9368133 C17.8114119,19.0340404 17.4185046,14.69081 19.1677288,13.5265723 C21.2320547,12.1527588 25.193888,14.5838793 27.1362251,17.4690803 C27.3185617,17.8458022 27.4631091,18.1235221 27.5698672,18.30224 C28.3675358,19.7632694 28.7138891,21.4411604 28.8574307,23.084765 C28.8970878,23.5877037 28.9052779,24.0869995 28.8888978,24.5817952 L30.7534293,26.537406 C31.4394545,27.256992 31.1185336,28.461302 30.1531842,28.7891657 L28.2362794,28.3022988 C26.5937415,33.3704724 22.0558022,37.3236949 16.4781565,37.9084925 C7.48784259,38.9441562 -0.436039468,31.0327824 1.22072325,22.0821019 C1.6361362,20.0304553 2.61930269,18.3183871 3.63581865,16.6308442 L4.10540194,15.8525725 C4.41744154,15.333356 4.72485473,14.8118726 5.01207398,14.2789446 C6.37636538,11.7475364 7.32425694,9.99550106 8.22279262,7.74695572 Z M15.2934797,7.50318471 C15.6432363,7.70062519 16.0345995,7.84470338 16.4625854,7.93008304 L22.0508887,9.04450113 C23.1569342,9.26520756 22.5245987,11.1851828 21.1966507,11.6383354 L14.9536915,13.7689849 C12.074376,15.2142492 9.32551497,17.2456449 8.42945345,20.2317987 C8.13972328,21.2019252 8.02617159,22.1438763 7.989549,22.9705649 C7.98391476,23.0595732 7.97979743,23.1477277 7.9767636,23.2356688 C7.88293177,23.0412166 7.79495088,22.8435627 7.71563806,22.6422801 C7.00594,20.8738538 6.82607759,18.8147097 7.46859812,17.0172543 C7.80015172,16.088537 8.41103381,15.3120089 8.99677849,14.5156301 C9.62586352,13.6979063 10.2980722,12.8942702 10.9965018,12.1111253 C12.3814423,10.5386453 13.8333437,9.01376445 15.2934797,7.50318471 Z M40.1168426,30.4720867 L42.5483871,30.4720867 C43.4015098,30.4720867 44.0931025,29.7804941 44.0931025,28.9273713 L44.0931025,21.2352758 L44.0931025,21.2352758 L52.7886387,21.2352758 L52.7886387,28.9273713 C52.7886387,29.7804941 53.4802314,30.4720867 54.3333541,30.4720867 L56.7648986,30.4720867 C57.6180214,30.4720867 58.3096141,29.7804941 58.3096141,28.9273713 L58.3096141,9.26829268 C58.3096141,8.4151699 57.6180214,7.72357724 56.7648986,7.72357724 L54.3333541,7.72357724 C53.4802314,7.72357724 52.7886387,8.4151699 52.7886387,9.26829268 L52.7886387,16.5634343 L52.7886387,16.5634343 L44.0931025,16.5634343 L44.0931025,9.26829268 C44.0931025,8.4151699 43.4015098,7.72357724 42.5483871,7.72357724 L40.1168426,7.72357724 C39.2637198,7.72357724 38.5721271,8.4151699 38.5721271,9.26829268 L38.5721271,28.9273713 C38.5721271,29.7804941 39.2637198,30.4720867 40.1168426,30.4720867 Z M65.7666259,30.7140921 C68.0335788,30.7140921 69.4789514,29.9225557 70.4374617,28.1872644 L70.4983195,28.1872644 L70.4983195,28.8953833 C70.4983195,29.7485061 71.1899121,30.4400988 72.0430349,30.4400988 L74.0656588,30.4400988 C74.9187815,30.4400988 75.6103742,29.7485061 75.6103742,28.8953833 L75.6103742,19.6173605 L75.6103742,19.6173605 C75.6103742,16.0706685 73.0391324,14.0157182 68.3682966,14.0157182 C63.7126753,14.0157182 61.0805757,16.0858903 60.852359,19.5716949 L65.7209826,19.5716949 C65.8274837,18.4757214 66.7251362,17.7755161 68.1857233,17.7755161 C69.5702381,17.7755161 70.4222472,18.4300559 70.4222472,19.3890327 L70.4222472,19.4651419 C70.4222472,20.4241187 69.3724503,20.6524466 66.4969194,20.8959962 C63.0736685,21.1699896 60.2589955,22.3420724 60.2589955,25.9496518 C60.2589955,29.1462412 62.5563772,30.7140921 65.7666259,30.7140921 Z M67.364143,27.289175 C66.0861293,27.289175 65.2189058,26.6955226 65.2189058,25.7061021 C65.2189058,24.6557942 66.2230594,24.0773637 67.6227887,23.8642578 C68.9160168,23.6511518 69.904956,23.4532677 70.4678906,23.1944962 L70.4678906,24.6557942 C70.4678906,26.238867 69.1138046,27.289175 67.364143,27.289175 Z M82.5942025,14.9837398 C83.4473253,14.9837398 84.1389179,15.6753325 84.1389179,16.5284553 L84.1389179,31.3846402 C84.1389179,34.8798524 82.1324769,36.7642276 78.1813314,36.7642276 L77.642435,36.7642276 C76.7893122,36.7642276 76.0977196,36.072635 76.0977196,35.2195122 L76.0977196,33.7871335 C76.0977196,33.1904498 76.5814272,32.7067422 77.1781109,32.7067422 C78.335673,32.7067422 78.8141321,32.174862 78.8141321,30.85276 L78.8141321,16.5284553 C78.8141321,15.6753325 79.5057247,14.9837398 80.3588475,14.9837398 L82.5942025,14.9837398 Z M113.931622,7.96558266 L116.116003,11.3822708 C116.803396,12.4604257 117.460238,13.5537659 118.101804,14.6319209 C118.773921,13.5537659 119.446039,12.4604257 120.148707,11.3822708 L122.363639,7.96558266 L125.92523,7.96558266 C126.187559,7.96558266 126.444091,8.04230315 126.662876,8.18618877 C127.278679,8.59117629 127.447631,9.41574588 127.04024,10.0279165 L121.156883,18.8686142 L127.767921,28.5142683 C127.919129,28.7348841 128,28.9956544 128,29.2626118 C128,29.9966198 127.401438,30.5916508 126.663074,30.5916508 L122.8219,30.5916508 L119.965402,26.2334753 C119.537691,25.5653229 118.916492,24.5594586 118.101804,23.2158824 C115.321683,28.3760258 110.2633,30.9560976 102.926656,30.9560976 C97.9774926,30.9560976 94.6168431,27.463483 94.6168431,22.5738226 C94.6168431,17.6841623 97.4732099,14.1915477 102.254408,14.1915477 C107.096707,14.1915477 109.639862,17.5930506 109.639862,22.4523404 L109.638677,22.5105525 C109.607968,23.2635128 108.984218,23.8645715 108.219251,23.8645715 L99.2146046,23.8645715 C99.2757061,25.8993991 100.849698,26.8543714 102.926656,26.8543714 C108.5145,26.8543714 112.659673,24.3291198 115.362174,19.2786167 L109.091913,10.0293807 C108.946552,9.81157816 108.869022,9.55600126 108.869022,9.29462172 C108.869022,8.56061371 109.467584,7.96558266 110.205948,7.96558266 L113.931622,7.96558266 Z M98.9202719,7.72357724 C99.7733947,7.72357724 100.464987,8.4151699 100.464987,9.26829268 L100.464987,10.8507033 C100.464987,11.7038261 99.7733947,12.3954188 98.9202719,12.3954188 L92.3937631,12.3954188 L92.3937631,28.9273713 C92.3937631,29.7804941 91.7021704,30.4720867 90.8490476,30.4720867 L88.4094173,30.4720867 C87.5562945,30.4720867 86.8647018,29.7804941 86.8647018,28.9273713 L86.8647018,12.3954188 L80.3228345,12.3954188 C79.4697117,12.3954188 78.778119,11.7038261 78.778119,10.8507033 L78.778119,9.26829268 C78.778119,8.4151699 79.4697117,7.72357724 80.3228345,7.72357724 L98.9202719,7.72357724 Z M102.391886,18.048609 C100.619941,18.048609 99.4742862,19.0508375 99.2451554,20.7364037 L105.538617,20.7364037 C105.309486,19.0508375 104.148556,18.048609 102.391886,18.048609 Z" id="Combined-Shape-Copy" fill="#1B222C"></path>
    </g>
</svg>